<svg width="65" height="7" viewBox="0 0 65 7" fill="none" xmlns="http://www.w3.org/2000/svg">
<path id="Vector" fill-rule="evenodd" clip-rule="evenodd" d="M3.62913 6.96594C-0.0122708 6.83178 -0.424521 6.64398 0.606063 5.65117C1.73971 4.55103 4.11007 4.28263 22.5232 3.82647C1.25878 3.50448 -0.69936 3.12888 0.15946 1.86775C1.25875 0.284622 8.30107 0.445617 42.5852 0.391952C52.8567 0.365119 58.5592 -0.0910087 61.4792 0.0163221C65.5328 0.177318 64.5366 1.41156 62.8533 1.97505L63.7808 2.10921C66.2199 2.45804 64.7428 4.65828 61.6167 5.30227C58.8685 5.86575 43.0661 6.45612 27.8479 6.56345C7.71711 6.67078 7.78582 7.12694 3.62913 6.96594Z" fill="#494949"/>
</svg>
