<svg width="66" height="66" viewBox="0 0 66 66" fill="none" xmlns="http://www.w3.org/2000/svg">
<g id="Sketch-annotation-element-brush-pen-highlight-sparkle">
<path id="Vector" d="M45.034 48.4C44.748 49.104 44.858 51.876 45.166 52.272C45.628 52.844 46.486 52.7339 46.64 52.0959C47.124 50.1379 45.672 46.794 45.034 48.4Z" fill="#E85E56"/>
<path id="Vector_2" d="M21.098 21.2299C20.966 22.1979 21.032 24.7059 21.076 26.2019C21.098 26.6639 21.45 27.0159 21.89 27.0599C23.166 27.1699 23.43 24.7499 22.616 20.7679C22.418 19.7779 21.274 20.1079 21.098 21.2299Z" fill="#E85E56"/>
<path id="Vector_3" d="M26.202 19.1837C28.094 19.1837 29.15 18.8978 29.15 18.3698C29.15 17.6878 27.566 17.5117 25.19 17.8857C22.638 18.3257 23.32 19.1837 26.202 19.1837Z" fill="#E85E56"/>
<path id="Vector_4" d="M21.054 9.43781C20.526 9.65781 20.68 16.4778 21.208 16.7638C22.66 17.5338 23.298 16.6758 23.122 14.2998C22.704 9.34983 22.506 8.84381 21.054 9.43781Z" fill="#E85E56"/>
<path id="Vector_5" d="M16.698 17.842C15.224 18.018 14.85 18.1719 14.85 18.6339C14.85 19.3599 19.25 19.5359 20.284 18.8539C21.516 18.0399 19.602 17.49 16.698 17.842Z" fill="#E85E56"/>
<path id="Vector_6" d="M45.276 45.5399C45.672 45.4959 45.98 45.1879 45.98 44.7919C46.09 42.1959 46.178 40.4799 44.572 41.1179C44.264 41.2499 44.198 42.8778 44.44 44.5938C44.594 45.5838 44.616 45.6059 45.276 45.5399Z" fill="#E85E56"/>
<path id="Vector_7" d="M47.014 46.486C46.332 46.772 46.398 47.3 47.146 47.454C47.806 47.608 50.402 47.234 50.908 46.926C51.832 46.332 48.334 45.936 47.014 46.486Z" fill="#E85E56"/>
<path id="Vector_8" d="M44 46.4639C43.296 46.1999 43.142 46.2 42.02 46.53C40.326 47.036 41.03 47.7179 42.988 47.4539C44.352 47.2779 44.836 46.7939 44 46.4639Z" fill="#E85E56"/>
<path id="Vector_9" d="M41.448 36.1018C41.998 35.1778 41.8221 34.0117 41.0521 33.2857C39.1381 31.4817 37.2901 28.4018 36.2121 25.2118C35.5961 23.4298 33.968 16.2797 33.968 15.3777C33.968 14.2337 32.7141 13.6617 31.9221 14.4537C31.7461 14.6297 31.526 15.3997 31.46 16.1697C31.042 20.0417 28.7541 28.8197 27.4561 31.4597C26.8181 32.7577 25.4981 34.0117 24.1121 34.6277C22.9241 35.1557 22.924 35.2437 24.398 36.5197C27.324 39.0717 29.48 44.1097 30.998 51.9857C32.362 59.0477 34.7601 56.7597 34.4961 55.3297C33.9461 52.5577 37.1801 43.2517 40.8761 37.0477L41.448 36.1018ZM38.6321 35.1997C36.4981 37.9277 34.188 42.1957 33.088 45.4737L32.5821 47.0137L32.2961 45.5837C30.2941 35.8817 26.224 35.3977 25.784 34.9797C26.268 34.4737 30.646 31.7237 32.67 25.3877C33.286 23.4737 33.176 23.4737 33.77 25.2777C34.892 28.6877 36.454 31.4597 38.258 33.3077L39.2921 34.3637L38.6321 35.1997Z" fill="#E85E56"/>
</g>
</svg>
