<svg width="109" height="66" viewBox="0 0 109 66" fill="none" xmlns="http://www.w3.org/2000/svg">
<path d="M88.034 48.4C87.748 49.104 87.858 51.876 88.166 52.272C88.628 52.844 89.486 52.7339 89.64 52.0959C90.124 50.1379 88.672 46.794 88.034 48.4Z" fill="#E85E56"/>
<path d="M64.098 21.2299C63.966 22.1979 64.032 24.7059 64.076 26.2019C64.098 26.6639 64.45 27.0159 64.89 27.0599C66.166 27.1699 66.43 24.7499 65.616 20.7679C65.418 19.7779 64.274 20.1079 64.098 21.2299Z" fill="#E85E56"/>
<path d="M69.202 19.1837C71.094 19.1837 72.15 18.8978 72.15 18.3698C72.15 17.6878 70.566 17.5117 68.19 17.8857C65.638 18.3257 66.32 19.1837 69.202 19.1837Z" fill="#E85E56"/>
<path d="M64.054 9.43781C63.526 9.65781 63.68 16.4778 64.208 16.7638C65.66 17.5338 66.298 16.6758 66.122 14.2998C65.704 9.34983 65.506 8.84381 64.054 9.43781Z" fill="#E85E56"/>
<path d="M59.698 17.842C58.224 18.018 57.85 18.1719 57.85 18.6339C57.85 19.3599 62.25 19.5359 63.284 18.8539C64.516 18.0399 62.602 17.49 59.698 17.842Z" fill="#E85E56"/>
<path d="M88.276 45.5399C88.672 45.4959 88.98 45.1879 88.98 44.7919C89.09 42.1959 89.178 40.4799 87.572 41.1179C87.264 41.2499 87.198 42.8778 87.44 44.5938C87.594 45.5838 87.616 45.6059 88.276 45.5399Z" fill="#E85E56"/>
<path d="M90.014 46.486C89.332 46.772 89.398 47.3 90.146 47.454C90.806 47.608 93.402 47.234 93.908 46.926C94.832 46.332 91.334 45.936 90.014 46.486Z" fill="#E85E56"/>
<path d="M87 46.4639C86.296 46.1999 86.142 46.2 85.02 46.53C83.326 47.036 84.03 47.7179 85.988 47.4539C87.352 47.2779 87.836 46.7939 87 46.4639Z" fill="#E85E56"/>
<path d="M84.448 36.1018C84.998 35.1778 84.8221 34.0117 84.0521 33.2857C82.1381 31.4817 80.2901 28.4018 79.2121 25.2118C78.5961 23.4298 76.968 16.2797 76.968 15.3777C76.968 14.2337 75.7141 13.6617 74.9221 14.4537C74.7461 14.6297 74.526 15.3997 74.46 16.1697C74.042 20.0417 71.7541 28.8197 70.4561 31.4597C69.8181 32.7577 68.4981 34.0117 67.1121 34.6277C65.9241 35.1557 65.924 35.2437 67.398 36.5197C70.324 39.0717 72.48 44.1097 73.998 51.9857C75.362 59.0477 77.7601 56.7597 77.4961 55.3297C76.9461 52.5577 80.1801 43.2517 83.8761 37.0477L84.448 36.1018ZM81.6321 35.1997C79.4981 37.9277 77.188 42.1957 76.088 45.4737L75.5821 47.0137L75.2961 45.5837C73.2941 35.8817 69.224 35.3977 68.784 34.9797C69.268 34.4737 73.646 31.7237 75.67 25.3877C76.286 23.4737 76.176 23.4737 76.77 25.2777C77.892 28.6877 79.454 31.4597 81.258 33.3077L82.2921 34.3637L81.6321 35.1997Z" fill="#E85E56"/>
<path fill-rule="evenodd" clip-rule="evenodd" d="M3.62913 39.9659C-0.0122708 39.8318 -0.424521 39.644 0.606063 38.6512C1.73971 37.551 4.11007 37.2826 22.5232 36.8265C1.25878 36.5045 -0.69936 36.1289 0.15946 34.8677C1.25875 33.2846 8.30107 33.4456 42.5852 33.392C52.8567 33.3651 58.5592 32.909 61.4792 33.0163C65.5328 33.1773 64.5366 34.4116 62.8533 34.975L63.7808 35.1092C66.2199 35.458 64.7428 37.6583 61.6167 38.3023C58.8685 38.8658 43.0661 39.4561 27.8479 39.5635C7.71711 39.6708 7.78582 40.1269 3.62913 39.9659Z" fill="#494949"/>
</svg>
