<svg width="69" height="95" viewBox="0 0 69 95" fill="none" xmlns="http://www.w3.org/2000/svg">
<g id="16">
<path id="Vector 109" d="M56.1673 94.0179L44.9963 73.8054L68.0863 74.2373L56.1673 94.0179ZM2.01832 42.0611L0.606213 40.6447L1.24803 40.0048L2.1523 40.0656L2.01832 42.0611ZM54.5538 76.4634C52.9359 69.3546 48.9008 61.92 40.7904 55.9344C32.6561 49.9312 20.2932 45.2926 1.88434 44.0566L2.1523 40.0656C21.0875 41.3369 34.2513 46.1371 43.1657 52.716C52.104 59.3126 56.6397 67.6036 58.4541 75.5757L54.5538 76.4634ZM3.43042 43.4774C3.56168 43.333 3.82103 42.9264 3.92621 42.6591C4.00436 42.288 3.94378 41.5274 3.80456 41.1667C3.64839 40.9071 3.30309 40.5328 3.13819 40.4084C3.02023 40.3346 2.80936 40.2289 2.72035 40.1932C2.54541 40.1279 2.40207 40.1033 2.35059 40.095C2.28312 40.084 2.22975 40.0791 2.2008 40.0768C2.10775 40.0695 2.05113 40.0731 2.08726 40.0721C2.12688 40.0709 2.2281 40.0653 2.40451 40.0503C2.7459 40.0213 3.27533 39.9654 3.96256 39.877C5.33391 39.7006 7.29338 39.4002 9.57233 38.9439C14.1544 38.0266 19.9114 36.5022 24.772 34.1513C29.7254 31.7556 33.2376 28.7502 34.1986 25.1353C35.1205 21.6674 33.9003 16.7245 27.09 9.85245L29.9312 7.03682C37.1092 14.28 39.534 20.6343 38.0643 26.1629C36.6337 31.5446 31.7179 35.2352 26.5136 37.7523C21.2164 40.3143 15.0858 41.9195 10.3576 42.8661C7.98129 43.3418 5.92982 43.6569 4.47285 43.8443C3.74592 43.9378 3.15683 44.0008 2.74267 44.036C2.5413 44.0531 2.35548 44.0658 2.2072 44.0703C2.14938 44.072 2.02361 44.0753 1.88723 44.0645C1.87453 44.0635 1.61515 44.0501 1.32221 43.9408C1.23105 43.9043 1.01844 43.7977 0.899155 43.723C0.732922 43.5978 0.386717 43.2225 0.230042 42.9619C0.0903302 42.6002 0.0296728 41.8386 0.108154 41.4664C0.213677 41.1981 0.473776 40.7903 0.606213 40.6447L3.43042 43.4774Z" fill="#E85E56"/>
<circle id="Ellipse 20" cx="6.02564" cy="6.02564" r="4.02564" transform="matrix(0.000330758 -1 -1 -0.000330758 31.5526 12.0611)" fill="white" stroke="#E85E56" stroke-width="4"/>
</g>
</svg>
