<svg width="150" height="150" viewBox="0 0 150 150" fill="none" xmlns="http://www.w3.org/2000/svg">
<path d="M144.146 93.1867C136.669 91.2669 124.073 89.2124 119.425 86.0464C117.505 84.7329 117.741 83.2846 118.078 82.2742C118.414 81.3311 120.334 80.3544 121.513 80.4218C124.174 80.5228 126.835 81.0954 129.394 81.8027C135.086 83.352 140.745 84.9686 146.336 86.8211C149.299 87.7978 150.243 90.0544 148.525 91.5026C147.514 92.3447 146.571 93.1867 144.146 93.1867Z" fill="#E85E56"/>
<path d="M26.2642 145.223C26.601 143.438 27.2747 142.495 28.2514 141.114C32.0573 135.793 36.0316 130.572 39.9385 125.352C40.1743 125.048 40.4437 124.712 40.7469 124.476C42.0941 123.331 43.6097 121.984 45.3611 123.23C47.1125 124.51 46.5062 126.396 45.5632 127.911C41.6562 134.277 37.6819 140.609 33.6403 146.907C33.034 147.884 31.9899 148.726 30.9458 149.231C28.3524 150.477 26.0622 148.76 26.2642 145.223Z" fill="#E85E56"/>
<path d="M110.432 144.046C110.432 145.561 109.253 146.639 108.378 146.807C107.199 147.043 106.188 146.841 104.504 145.696C103.932 145.325 103.595 144.416 103.258 143.709C100.799 138.387 98.3071 133.099 95.9157 127.744C95.3095 126.431 94.7032 124.915 94.8043 123.534C94.9053 122.288 95.68 120.503 96.6904 120.065C97.6671 119.627 98.9807 119.492 100.53 121.008C101.103 121.547 101.641 122.456 102.012 123.298C104.437 128.923 106.862 134.548 109.22 140.206C109.657 141.284 109.927 142.463 110.432 144.046Z" fill="#E85E56"/>
<path d="M3.52991 97.6334C1.9806 97.1956 0.970185 96.4546 0.734421 95.4442C0.431296 94.1643 1.07123 92.4466 1.8122 91.2341C2.38477 90.3248 3.69831 89.7522 4.80977 89.3817C10.3671 87.5293 15.958 85.7105 21.5827 83.9928C22.5257 83.6897 23.7382 83.5886 24.6476 83.8918C26.1296 84.397 26.7695 85.5758 25.557 86.9904C24.8834 87.7987 24.1087 88.6407 23.1994 89.0786C17.9452 91.7057 12.6573 94.2317 7.33581 96.7241C6.35907 97.1619 5.04553 98.105 3.52991 97.6334Z" fill="#E85E56"/>
<path d="M117.64 39.8377C116.899 39.5346 116.259 38.3221 116.225 37.5137C116.191 36.4023 116.528 35.0551 117.202 34.1457C120.334 29.8346 123.635 25.5908 126.902 21.3808C127.373 20.7408 128.013 20.2356 128.653 19.7304C130.101 18.6189 131.988 17.6422 133.267 19.3262C134.008 20.303 134.244 22.7953 133.537 23.6373C129.226 28.8915 124.578 33.9099 119.964 38.9283C119.593 39.3662 118.852 40.0735 117.64 39.8377Z" fill="#E85E56"/>
<path d="M9.65967 32.5288C11.5458 33.1014 12.994 33.4382 14.375 33.9434C18.3829 35.3917 22.3909 36.8736 26.3652 38.3892C27.4767 38.8271 28.6555 39.2649 29.5649 39.9722C30.2048 40.4774 30.9121 41.7573 30.6763 42.2288C30.2722 43.0035 29.6659 43.9802 28.285 43.8791C27.7125 43.8455 26.9715 43.8118 26.3315 43.6434C21.8184 42.4309 17.3052 41.2857 12.8256 39.9385C11.31 39.5007 9.72703 38.8608 8.51453 37.884C7.63884 37.1767 6.83051 35.5937 7.06627 34.6507C7.26835 33.775 8.00932 32.5288 9.65967 32.5288Z" fill="#E85E56"/>
<path d="M71.2954 18.5847C71.2617 18.9889 71.228 19.393 71.0933 19.7635C70.5207 21.4139 70.1502 23.2663 67.8262 23.0979C65.3676 22.9295 65.2665 20.9086 65.3002 19.2583C65.4012 15.284 65.7717 11.3097 66.0749 7.30171C66.2096 5.85344 66.378 4.3715 66.7822 2.9906C67.1863 1.57601 67.7589 0.127749 69.7124 0.363513C71.5311 0.599277 72.1374 1.81178 72.171 3.42844C72.171 5.17983 71.6322 15.284 71.2954 18.5847Z" fill="#E85E56"/>
<path d="M92.0021 55.2054C91.5984 59.1934 91.3078 62.5194 90.9042 65.8293C90.6781 67.6376 89.9354 69.2038 87.901 69.6397C86.2057 69.9949 84.4458 69.0585 83.4286 66.9757C82.4438 64.9736 81.7333 62.8262 80.9906 60.7111C78.8432 54.6403 75.5333 49.2475 71.4323 44.3231C70.1568 42.7892 68.8974 41.2554 67.4281 39.4793C67.1052 40.5611 66.8469 41.433 66.5885 42.3048C63.8438 51.7824 62.9073 61.4376 63.3271 71.2705C63.4562 74.4512 63.0849 77.6965 62.6328 80.8611C62.3422 82.8955 61.5833 84.9621 59.1292 85.4142C57.3693 85.7371 55.6255 84.284 54.5599 81.6361C53.8495 79.86 53.3812 77.971 52.7354 76.1626C52.3802 75.1455 51.8635 74.1929 51.3953 73.1272C45.4698 80.3283 49.9906 104.079 57.8859 107.55C57.9182 101.189 60.8406 95.9251 64.2958 90.9522C69.188 83.9126 71.8521 76.1304 72.7401 67.6699C72.8047 67.0402 72.9339 66.3944 73.0469 65.7809C73.5958 62.9069 74.7745 62.4387 76.9219 64.5699C78.3104 65.9423 79.5375 67.6376 80.3448 69.3975C84.349 78.0194 86.012 86.9642 83.2995 96.3611C82.9927 97.3944 82.2984 98.8475 82.8151 99.5902C83.7193 100.72 85.1401 98.783 85.4469 97.9918C86.2542 95.909 86.7547 93.7293 87.4005 91.5819C87.8042 90.2418 88.0464 88.7725 88.7729 87.61C89.338 86.7059 90.5651 85.5918 91.4047 85.6725C92.2766 85.7533 93.4875 86.9965 93.7781 87.9652C95.9094 95.1824 94.9083 101.786 88.2563 107.389C84.8333 110.279 80.6193 111.215 76.3083 111.78C71.4484 112.41 66.6531 112.604 61.7771 111.49C59.4521 110.957 57.0302 110.602 55.6255 110.085C54.2208 109.568 53.026 108.519 52.4609 107.647C45.276 96.5548 44.0974 84.8652 49.151 72.6106C50.2005 70.0757 52.2187 69.5429 53.9948 71.6418C55.3026 73.1918 56.0453 75.2746 56.8687 77.2121C57.4339 78.5684 57.7406 80.0376 58.1281 81.4585C58.6125 83.2345 59.3229 83.509 59.8073 83.2022C60.4047 83.0246 60.7599 80.8772 60.6953 78.7298C60.5823 75.1939 60.6469 71.6418 60.2755 68.1382C59.1937 57.8694 61.6964 48.2465 65.3453 38.8173C66.2495 36.46 67.2828 36.1694 69.2203 37.8163C77.1641 44.5491 82.8958 52.7512 85.4953 62.9554C85.899 64.5054 86.0281 66.2491 87.9979 67.4762C88.1917 65.9746 88.3531 64.7314 88.5307 63.5043C88.9828 60.4689 89.2734 57.4012 89.9516 54.4304C90.3714 52.6382 91.6146 52.2668 92.9224 53.5585C94.6339 55.2538 96.313 57.1267 97.4271 59.2418C101.577 67.1533 102.997 75.7429 102.965 84.5908C102.933 91.5496 101.641 98.2986 98.4443 104.515C97.3625 106.63 95.538 108.374 93.988 110.23C93.2937 111.07 91.7115 110.795 92.438 108.923C92.5026 108.761 92.5833 108.567 92.6964 108.406C98.7026 100.349 99.3 90.9199 99.3807 81.4262C99.4453 73.8538 98.3474 66.4267 94.8115 59.5809C94.0688 58.1762 93.1161 56.9168 92.0021 55.2054ZM91.1302 88.3205C90.1776 91.485 89.4349 94.1007 88.5792 96.7001C87.901 98.7507 86.8677 100.607 84.8333 101.625C82.476 102.819 80.1833 101.495 80.0542 98.8475C80.0057 97.7658 80.0542 96.6517 80.2641 95.6022C81.9109 87.1741 81.1359 79.0043 77.8422 71.0767C77.2771 69.7205 76.4536 68.4772 75.6302 66.9918C75.3396 67.4762 75.1297 69.2361 75.0974 69.9949C74.8875 75.7429 74.2417 81.4262 71.2224 86.496C69.4141 89.5152 67.3797 92.4053 65.4099 95.3439C63.2302 98.6215 61.2927 102.012 60.5823 105.952C60.0979 108.648 60.3078 108.777 62.8911 109.439C68.3646 110.828 73.725 109.94 79.0693 108.874C85.1562 107.663 88.9505 103.659 91.2109 98.1371C92.4542 95.1178 92.099 91.9856 91.1302 88.3205Z" fill="#E85E56"/>
</svg>
